<?xml version="1.0" standalone="no"?>
<!DOCTYPE svg PUBLIC "-//W3C//DTD SVG 20010904//EN"
 "http://www.w3.org/TR/2001/REC-SVG-20010904/DTD/svg10.dtd">
<svg version="1.0" xmlns="http://www.w3.org/2000/svg"
 width="800.000000pt" height="800.000000pt" viewBox="0 0 800.000000 800.000000"
 preserveAspectRatio="xMidYMid meet">
<metadata>
Created by potrace 1.14, written by Peter Selinger 2001-2017
</metadata>
<g transform="translate(0.000000,800.000000) scale(0.100000,-0.100000)"
fill="#000000" stroke="none">
<path d="M3591 5120 c-80 -29 -126 -64 -173 -135 -29 -43 -63 -149 -54 -164 4
-5 2 -12 -4 -16 -6 -4 -8 -10 -5 -15 3 -5 8 -30 11 -57 8 -71 54 -160 119
-228 522 -547 478 -505 515 -505 34 0 35 0 269 249 69 73 159 168 199 210 91
94 125 141 147 206 58 172 -17 360 -175 440 -70 35 -177 40 -257 10 -29 -10
-53 -23 -53 -27 0 -4 -6 -8 -14 -8 -8 0 -38 -24 -68 -54 l-53 -53 -30 36 c-85
106 -250 154 -374 111z"/>
<path d="M5063 3710 c-18 -4 -40 -13 -48 -20 -8 -7 -15 -9 -15 -6 0 4 -15 -7
-32 -23 -18 -17 -36 -31 -39 -31 -5 0 -22 -13 -66 -50 -7 -5 -17 -10 -23 -10
-5 0 -10 -4 -10 -8 0 -4 -13 -16 -30 -25 -16 -10 -35 -23 -42 -30 -7 -7 -76
-59 -153 -115 l-139 -102 -285 2 -284 3 -20 27 c-17 23 -18 30 -7 57 7 17 22
33 34 37 11 4 109 7 216 8 176 1 198 3 229 21 43 25 69 61 76 104 8 48 -25
112 -73 138 -36 20 -48 21 -447 18 -435 -2 -431 -2 -513 -29 -43 -15 -174 -93
-192 -116 -3 -3 -41 -35 -85 -70 l-79 -65 -126 -1 c-69 0 -135 -4 -147 -8 -26
-8 -54 -58 -42 -77 4 -7 3 -21 -2 -30 -6 -11 -5 -20 1 -24 6 -4 7 -13 1 -24
-6 -10 -6 -23 -1 -31 5 -8 6 -18 4 -22 -8 -13 -8 -193 0 -206 3 -6 2 -13 -3
-16 -4 -3 -5 -25 -1 -48 15 -82 -50 -76 852 -76 980 0 889 -12 1116 155 187
137 227 168 230 175 2 5 8 8 13 8 5 0 17 7 26 15 10 8 52 39 93 69 41 30 80
59 85 63 6 5 31 24 57 42 80 57 104 143 66 231 -28 66 -117 106 -195 90z"/>
</g>
</svg>
